<mxfile>
    <diagram id="8_n95EOln2UsonjGVW7M" name="Page-1">
        <mxGraphModel dx="833" dy="678" grid="1" gridSize="10" guides="1" tooltips="1" connect="1" arrows="1" fold="1" page="1" pageScale="1" pageWidth="827" pageHeight="1169" math="0" shadow="0">
            <root>
                <mxCell id="0"/>
                <mxCell id="1" parent="0"/>
                <mxCell id="8DcISqcebchj2DU5c0EA-15" value="" style="whiteSpace=wrap;html=1;fontColor=#828282;fillColor=none;gradientColor=none;dashed=1;imageAspect=0;resizeWidth=1;resizeHeight=1;" parent="1" vertex="1">
                    <mxGeometry x="120" y="190" width="600" height="340" as="geometry"/>
                </mxCell>
                <mxCell id="8DcISqcebchj2DU5c0EA-7" style="edgeStyle=orthogonalEdgeStyle;rounded=0;orthogonalLoop=1;jettySize=auto;html=1;fontColor=#828282;dashed=1;strokeColor=#828282;exitX=0.5;exitY=1;exitDx=0;exitDy=0;entryX=0.5;entryY=0;entryDx=0;entryDy=0;startArrow=classic;startFill=1;endArrow=none;endFill=0;" parent="1" source="8DcISqcebchj2DU5c0EA-4" target="vokT_BwdEswsIu_CdFQj-2" edge="1">
                    <mxGeometry relative="1" as="geometry">
                        <mxPoint x="780" y="510" as="sourcePoint"/>
                        <Array as="points"/>
                    </mxGeometry>
                </mxCell>
                <mxCell id="8DcISqcebchj2DU5c0EA-8" value="&lt;div&gt;&lt;b&gt;Sends REST requests&lt;/b&gt;&lt;/div&gt;&lt;div&gt;&lt;b&gt; to query, create or edit &lt;br&gt;&lt;/b&gt;&lt;/div&gt;&lt;div&gt;&lt;b&gt;cards on a configured&lt;/b&gt;&lt;/div&gt;&lt;div&gt;&lt;b&gt;board&lt;br&gt;&lt;/b&gt;&lt;/div&gt;" style="edgeLabel;html=1;align=center;verticalAlign=middle;resizable=0;points=[];fontColor=#828282;" parent="8DcISqcebchj2DU5c0EA-7" vertex="1" connectable="0">
                    <mxGeometry x="-0.1692" y="-2" relative="1" as="geometry">
                        <mxPoint x="17" y="-2" as="offset"/>
                    </mxGeometry>
                </mxCell>
                <mxCell id="8DcISqcebchj2DU5c0EA-1" value="&lt;div style=&quot;font-size: 16px&quot;&gt;UI Component&lt;br&gt;&lt;/div&gt;&lt;div style=&quot;font-size: 8px&quot;&gt;&lt;font style=&quot;font-size: 8px&quot;&gt;[Component: Jinja and HTML]&lt;/font&gt;&lt;/div&gt;&lt;div&gt;&lt;br&gt;&lt;/div&gt;Template for how to display the task data for the webpage" style="rounded=0;whiteSpace=wrap;html=1;fillColor=#1ba1e2;fontColor=#ffffff;strokeColor=none;" parent="1" vertex="1">
                    <mxGeometry x="440" y="380" width="200" height="90" as="geometry"/>
                </mxCell>
                <mxCell id="8DcISqcebchj2DU5c0EA-26" style="edgeStyle=orthogonalEdgeStyle;rounded=0;orthogonalLoop=1;jettySize=auto;html=1;entryX=0.5;entryY=1;entryDx=0;entryDy=0;dashed=1;fontColor=#828282;startArrow=classic;startFill=1;endArrow=none;endFill=0;strokeColor=#828282;" parent="1" target="8DcISqcebchj2DU5c0EA-24" edge="1">
                    <mxGeometry relative="1" as="geometry">
                        <mxPoint x="240" y="598" as="sourcePoint"/>
                        <Array as="points">
                            <mxPoint x="240" y="598"/>
                        </Array>
                    </mxGeometry>
                </mxCell>
                <mxCell id="8DcISqcebchj2DU5c0EA-4" value="&lt;div style=&quot;font-size: 20px&quot;&gt;&lt;font size=&quot;1&quot;&gt;&lt;b&gt;&lt;font style=&quot;font-size: 16px&quot; color=&quot;#FFFFFF&quot;&gt;Trello&lt;/font&gt;&lt;/b&gt;&lt;/font&gt;&lt;/div&gt;&lt;div style=&quot;font-size: 11px&quot;&gt;&lt;font style=&quot;font-size: 11px&quot; color=&quot;#FFFFFF&quot;&gt;Web application for storing cards&lt;br&gt;&lt;/font&gt;&lt;/div&gt;" style="rounded=0;whiteSpace=wrap;html=1;strokeColor=none;fillColor=#C9C9C9;" parent="1" vertex="1">
                    <mxGeometry x="162" y="30" width="156" height="100" as="geometry"/>
                </mxCell>
                <mxCell id="8DcISqcebchj2DU5c0EA-13" value="&lt;b&gt;Component Diagram for ToDo App &lt;/b&gt;" style="text;html=1;strokeColor=none;fillColor=none;align=center;verticalAlign=middle;whiteSpace=wrap;rounded=0;fontColor=#828282;" parent="1" vertex="1">
                    <mxGeometry x="585" y="720" width="250" height="20" as="geometry"/>
                </mxCell>
                <mxCell id="8DcISqcebchj2DU5c0EA-16" style="edgeStyle=orthogonalEdgeStyle;rounded=0;orthogonalLoop=1;jettySize=auto;html=1;exitX=0.5;exitY=1;exitDx=0;exitDy=0;dashed=1;fontColor=#828282;strokeColor=#828282;" parent="1" source="8DcISqcebchj2DU5c0EA-15" target="8DcISqcebchj2DU5c0EA-15" edge="1">
                    <mxGeometry relative="1" as="geometry"/>
                </mxCell>
                <mxCell id="8DcISqcebchj2DU5c0EA-18" style="edgeStyle=orthogonalEdgeStyle;rounded=0;orthogonalLoop=1;jettySize=auto;html=1;exitX=0.5;exitY=1;exitDx=0;exitDy=0;dashed=1;fontColor=#828282;strokeColor=#828282;" parent="1" source="8DcISqcebchj2DU5c0EA-15" target="8DcISqcebchj2DU5c0EA-15" edge="1">
                    <mxGeometry relative="1" as="geometry"/>
                </mxCell>
                <mxCell id="8DcISqcebchj2DU5c0EA-20" value="&lt;div style=&quot;font-size: 16px&quot;&gt;Multi-page App&lt;br&gt;&lt;/div&gt;&lt;div style=&quot;font-size: 8px&quot;&gt;&lt;font style=&quot;font-size: 8px&quot;&gt;[Container: Jinja Templates and HTML]&lt;/font&gt;&lt;/div&gt;&lt;div&gt;&lt;br&gt;&lt;/div&gt;&lt;div style=&quot;font-size: 11px&quot;&gt;Provides the task UI for viewing and editing tasks&lt;br&gt;&lt;/div&gt;" style="rounded=0;whiteSpace=wrap;html=1;fillColor=#1ba1e2;fontColor=#ffffff;strokeColor=none;" parent="1" vertex="1">
                    <mxGeometry x="140" y="600" width="200" height="75" as="geometry"/>
                </mxCell>
                <mxCell id="8DcISqcebchj2DU5c0EA-24" value="&lt;div style=&quot;font-size: 16px&quot;&gt;App &lt;br&gt;&lt;/div&gt;&lt;div style=&quot;font-size: 8px&quot;&gt;&lt;font style=&quot;font-size: 8px&quot;&gt;[Component: Python]&lt;/font&gt;&lt;/div&gt;&lt;div&gt;&lt;br&gt;&lt;/div&gt;&lt;div&gt;Provides the routes for the webpage&lt;/div&gt;&lt;div&gt;&lt;br&gt;&lt;/div&gt;" style="rounded=0;whiteSpace=wrap;html=1;fillColor=#1ba1e2;fontColor=#ffffff;strokeColor=none;" parent="1" vertex="1">
                    <mxGeometry x="140" y="380" width="200" height="90" as="geometry"/>
                </mxCell>
                <mxCell id="8DcISqcebchj2DU5c0EA-27" value="Manages" style="endArrow=classic;html=1;dashed=1;fontColor=#828282;strokeColor=#828282;entryX=0;entryY=0.5;entryDx=0;entryDy=0;" parent="1" target="vokT_BwdEswsIu_CdFQj-4" edge="1">
                    <mxGeometry width="50" height="50" relative="1" as="geometry">
                        <mxPoint x="341" y="285" as="sourcePoint"/>
                        <mxPoint x="510" y="340" as="targetPoint"/>
                        <Array as="points">
                            <mxPoint x="390" y="285"/>
                        </Array>
                    </mxGeometry>
                </mxCell>
                <mxCell id="8DcISqcebchj2DU5c0EA-31" value="&lt;b&gt;Calls the relevant board actions&lt;/b&gt;" style="endArrow=classic;html=1;dashed=1;fontColor=#828282;strokeColor=#828282;entryX=0.5;entryY=1;entryDx=0;entryDy=0;exitX=0.5;exitY=0;exitDx=0;exitDy=0;" parent="1" source="8DcISqcebchj2DU5c0EA-24" target="vokT_BwdEswsIu_CdFQj-2" edge="1">
                    <mxGeometry width="50" height="50" relative="1" as="geometry">
                        <mxPoint x="220" y="370" as="sourcePoint"/>
                        <mxPoint x="270" y="320" as="targetPoint"/>
                    </mxGeometry>
                </mxCell>
                <mxCell id="vokT_BwdEswsIu_CdFQj-2" value="&lt;div style=&quot;font-size: 16px&quot;&gt;Trello_board Component&lt;br&gt;&lt;/div&gt;&lt;div style=&quot;font-size: 8px&quot;&gt;&lt;font style=&quot;font-size: 8px&quot;&gt;[Component: Python]&lt;/font&gt;&lt;/div&gt;&lt;div&gt;&lt;br&gt;&lt;/div&gt;&lt;div&gt;Talks to the Trello REST API&lt;br&gt;&lt;/div&gt;&lt;div&gt;&lt;br&gt;&lt;/div&gt;" style="rounded=0;whiteSpace=wrap;html=1;fillColor=#1ba1e2;fontColor=#ffffff;strokeColor=none;" parent="1" vertex="1">
                    <mxGeometry x="140" y="240" width="200" height="90" as="geometry"/>
                </mxCell>
                <mxCell id="vokT_BwdEswsIu_CdFQj-4" value="&lt;div style=&quot;font-size: 16px&quot;&gt;Task&lt;br&gt;&lt;/div&gt;&lt;div style=&quot;font-size: 8px&quot;&gt;&lt;font style=&quot;font-size: 8px&quot;&gt;[Component: Python]&lt;/font&gt;&lt;/div&gt;&lt;div&gt;&lt;br&gt;&lt;/div&gt;&lt;div&gt;Represents cards on the board&lt;br&gt;&lt;/div&gt;&lt;div&gt;&lt;br&gt;&lt;/div&gt;" style="rounded=0;whiteSpace=wrap;html=1;fillColor=#1ba1e2;fontColor=#ffffff;strokeColor=none;" parent="1" vertex="1">
                    <mxGeometry x="430" y="240" width="200" height="90" as="geometry"/>
                </mxCell>
                <mxCell id="vokT_BwdEswsIu_CdFQj-8" value="&lt;font color=&quot;#828282&quot;&gt;Uses&lt;/font&gt;" style="edgeStyle=orthogonalEdgeStyle;rounded=0;orthogonalLoop=1;jettySize=auto;html=1;exitX=1;exitY=0.5;exitDx=0;exitDy=0;strokeColor=#828282;" parent="1" source="8DcISqcebchj2DU5c0EA-24" edge="1">
                    <mxGeometry relative="1" as="geometry">
                        <mxPoint x="720" y="295" as="sourcePoint"/>
                        <mxPoint x="440" y="425" as="targetPoint"/>
                        <Array as="points">
                            <mxPoint x="380" y="425"/>
                            <mxPoint x="380" y="425"/>
                        </Array>
                        <mxPoint as="offset"/>
                    </mxGeometry>
                </mxCell>
                <mxCell id="vokT_BwdEswsIu_CdFQj-9" value="&lt;div align=&quot;left&quot;&gt;ToDo Application&lt;/div&gt;&lt;div align=&quot;left&quot;&gt;[Container]&lt;br&gt;&lt;/div&gt;" style="text;html=1;strokeColor=none;fillColor=none;align=left;verticalAlign=middle;whiteSpace=wrap;rounded=0;" parent="1" vertex="1">
                    <mxGeometry x="132" y="500" width="158" height="20" as="geometry"/>
                </mxCell>
                <mxCell id="2" value="&lt;div&gt;&lt;/div&gt;&lt;font&gt;&lt;span style=&quot;font-size: 16px&quot;&gt;Internal Component&lt;/span&gt;&lt;br&gt;&lt;/font&gt;" style="rounded=0;whiteSpace=wrap;html=1;fillColor=#1ba1e2;fontColor=#ffffff;strokeColor=none;" vertex="1" parent="1">
                    <mxGeometry x="860" y="190" width="120" height="85" as="geometry"/>
                </mxCell>
                <mxCell id="3" value="&lt;div style=&quot;font-size: 20px&quot;&gt;&lt;font size=&quot;1&quot;&gt;&lt;b&gt;&lt;font style=&quot;font-size: 16px&quot; color=&quot;#FFFFFF&quot;&gt;External Component&lt;/font&gt;&lt;/b&gt;&lt;/font&gt;&lt;/div&gt;&lt;div style=&quot;font-size: 11px&quot;&gt;&lt;font style=&quot;font-size: 11px&quot; color=&quot;#FFFFFF&quot;&gt;&lt;br&gt;&lt;/font&gt;&lt;/div&gt;" style="rounded=0;whiteSpace=wrap;html=1;strokeColor=none;fillColor=#C9C9C9;" vertex="1" parent="1">
                    <mxGeometry x="860" y="100" width="120" height="70" as="geometry"/>
                </mxCell>
                <mxCell id="7" value="&lt;b&gt;&lt;font style=&quot;font-size: 18px&quot;&gt;KEY&lt;/font&gt;&lt;/b&gt;" style="text;html=1;resizable=0;autosize=1;align=center;verticalAlign=middle;points=[];fillColor=none;strokeColor=none;rounded=0;" vertex="1" parent="1">
                    <mxGeometry x="890" y="300" width="50" height="20" as="geometry"/>
                </mxCell>
            </root>
        </mxGraphModel>
    </diagram>
</mxfile>